<svg width="32" height="32" viewBox="0 0 32 32" fill="none" xmlns="http://www.w3.org/2000/svg">
<g clip-path="url(#clip0_1_2)">
<path d="M16 32C24.8366 32 32 24.8366 32 16C32 7.16344 24.8366 0 16 0C7.16344 0 0 7.16344 0 16C0 24.8366 7.16344 32 16 32Z" fill="#FF0000"/>
<path d="M16 25.6C21.3019 25.6 25.6 21.3019 25.6 16C25.6 10.6981 21.3019 6.4 16 6.4C10.698 6.4 6.39998 10.6981 6.39998 16C6.39998 21.3019 10.698 25.6 16 25.6Z" fill="#FF0000" stroke="white" stroke-width="1.2"/>
<path d="M12.8 20.7267L21.1113 16.0013L12.8 11.2733V20.7267Z" fill="white"/>
</g>
<defs>
<clipPath id="clip0_1_2">
<rect width="32" height="32" fill="white"/>
</clipPath>
</defs>
</svg>
